{
  "accessors": [
    {
      "bufferView": 2,
      "componentType": 5126,
      "count": 216,
      "max": [
        2.0299975872039795,
        24.736221313476563,
        4.714293003082275
      ],
      "min": [
        -2.0299975872039795,
        -13.651043891906738,
        1.3166885375976563
      ],
      "type": "VEC3"
    },
    {
      "bufferView": 2,
      "byteOffset": 2592,
      "componentType": 5126,
      "count": 216,
      "max": [
        0.7867814898490906,
        0.40366196632385254,
        0.6034032702445984
      ],
      "min": [
        -0.7867811918258667,
        -0.24388720095157623,
        -0.8590322136878967
      ],
      "type": "VEC3"
    },
    {
      "bufferView": 1,
      "componentType": 5126,
      "count": 216,
      "max": [
        0.5,
        1.0
      ],
      "min": [
        0.0,
        0.0
      ],
      "type": "VEC2"
    },
    {
      "bufferView": 0,
      "componentType": 5125,
      "count": 312,
      "type": "SCALAR"
    },
    {
      "bufferView": 2,
      "byteOffset": 5184,
      "componentType": 5126,
      "count": 1824,
      "max": [
        14.90180492401123,
        24.736221313476563,
        6.177553176879883
      ],
      "min": [
        -14.90180492401123,
        -18.140247344970703,
        1.9088902473449707
      ],
      "type": "VEC3"
    },
    {
      "bufferView": 2,
      "byteOffset": 27072,
      "componentType": 5126,
      "count": 1824,
      "max": [
        0.9961133599281311,
        0.996056079864502,
        0.9983952045440674
      ],
      "min": [
        -0.9961133599281311,
        -0.872089684009552,
        -0.9960530400276184
      ],
      "type": "VEC3"
    },
    {
      "bufferView": 1,
      "byteOffset": 1728,
      "componentType": 5126,
      "count": 1824,
      "max": [
        1.0,
        1.0
      ],
      "min": [
        0.0,
        0.0
      ],
      "type": "VEC2"
    },
    {
      "bufferView": 0,
      "byteOffset": 1248,
      "componentType": 5125,
      "count": 2628,
      "type": "SCALAR"
    },
    {
      "bufferView": 2,
      "byteOffset": 48960,
      "componentType": 5126,
      "count": 1868,
      "max": [
        14.90180492401123,
        24.736221313476563,
        7.00469446182251
      ],
      "min": [
        -14.90180492401123,
        -18.140247344970703,
        3.2549710273742676
      ],
      "type": "VEC3"
    },
    {
      "bufferView": 2,
      "byteOffset": 71376,
      "componentType": 5126,
      "count": 1868,
      "max": [
        0.9999728798866272,
        0.9997599124908447,
        0.9997208118438721
      ],
      "min": [
        -0.9999728798866272,
        -0.9978628754615784,
        -0.9997082352638245
      ],
      "type": "VEC3"
    },
    {
      "bufferView": 1,
      "byteOffset": 16320,
      "componentType": 5126,
      "count": 1868,
      "max": [
        1.0,
        1.0
      ],
      "min": [
        0.0,
        0.0
      ],
      "type": "VEC2"
    },
    {
      "bufferView": 0,
      "byteOffset": 11760,
      "componentType": 5125,
      "count": 2700,
      "type": "SCALAR"
    },
    {
      "bufferView": 2,
      "byteOffset": 93792,
      "componentType": 5126,
      "count": 670,
      "max": [
        14.90180492401123,
        27.052349090576172,
        4.414360046386719
      ],
      "min": [
        -14.90180492401123,
        -6.381688117980957,
        1.9088902473449707
      ],
      "type": "VEC3"
    },
    {
      "bufferView": 2,
      "byteOffset": 101832,
      "componentType": 5126,
      "count": 670,
      "max": [
        0.9816455245018005,
        0.8398851156234741,
        0.9999921321868896
      ],
      "min": [
        -0.9816455841064453,
        -0.13108929991722107,
        -0.9999927878379822
      ],
      "type": "VEC3"
    },
    {
      "bufferView": 1,
      "byteOffset": 31264,
      "componentType": 5126,
      "count": 670,
      "max": [
        0.8535534143447876,
        1.0
      ],
      "min": [
        0.0,
        0.0
      ],
      "type": "VEC2"
    },
    {
      "bufferView": 0,
      "byteOffset": 22560,
      "componentType": 5125,
      "count": 894,
      "type": "SCALAR"
    },
    {
      "bufferView": 2,
      "byteOffset": 109872,
      "componentType": 5126,
      "count": 278,
      "max": [
        6.078295707702637,
        11.379446983337402,
        4.446461200714111
      ],
      "min": [
        -6.078295707702637,
        -15.961312294006348,
        2.003253698348999
      ],
      "type": "VEC3"
    },
    {
      "bufferView": 2,
      "byteOffset": 113208,
      "componentType": 5126,
      "count": 278,
      "max": [
        0.9837011694908142,
        0.972874104976654,
        0.9942318201065063
      ],
      "min": [
        -0.9837011694908142,
        -0.9976211190223694,
        -0.9942620992660522
      ],
      "type": "VEC3"
    },
    {
      "bufferView": 1,
      "byteOffset": 36624,
      "componentType": 5126,
      "count": 278,
      "max": [
        1.0,
        0.8535534143447876
      ],
      "min": [
        0.0,
        0.0
      ],
      "type": "VEC2"
    },
    {
      "bufferView": 0,
      "byteOffset": 26136,
      "componentType": 5125,
      "count": 378,
      "type": "SCALAR"
    }
  ],
  "asset": {
    "extras": {
      "author": "louieoliva (https://sketchfab.com/louieoliva)",
      "license": "CC-BY-4.0 (http://creativecommons.org/licenses/by/4.0/)",
      "source": "https://sketchfab.com/3d-models/low-poly-dragon-91836e765d764e098a98a8069d64efc9",
      "title": "Low Poly Dragon"
    },
    "generator": "Sketchfab-12.67.0",
    "version": "2.0"
  },
  "bufferViews": [
    {
      "buffer": 0,
      "byteLength": 27648,
      "name": "floatBufferViews",
      "target": 34963
    },
    {
      "buffer": 0,
      "byteLength": 38848,
      "byteOffset": 27648,
      "byteStride": 8,
      "name": "floatBufferViews",
      "target": 34962
    },
    {
      "buffer": 0,
      "byteLength": 116544,
      "byteOffset": 66496,
      "byteStride": 12,
      "name": "floatBufferViews",
      "target": 34962
    }
  ],
  "buffers": [
    {
      "byteLength": 183040,
      "uri": "scene.bin"
    }
  ],
  "materials": [
    {
      "doubleSided": true,
      "name": "Belly",
      "pbrMetallicRoughness": {
        "baseColorFactor": [
          0.14126,
          0.100634,
          0.0234106,
          1.0
        ],
        "metallicFactor": 0.0
      }
    },
    {
      "doubleSided": true,
      "name": "Skin",
      "pbrMetallicRoughness": {
        "baseColorFactor": [
          0.329891,
          0.304991,
          0.0618981,
          1.0
        ],
        "metallicFactor": 0.0,
        "roughnessFactor": 0.9345428145
      }
    },
    {
      "doubleSided": true,
      "name": "Detail1",
      "pbrMetallicRoughness": {
        "baseColorFactor": [
          0.304981,
          0.211039,
          0.0859125,
          1.0
        ],
        "metallicFactor": 0.0,
        "roughnessFactor": 0.9688244624
      }
    },
    {
      "doubleSided": true,
      "name": "Wings",
      "pbrMetallicRoughness": {
        "baseColorFactor": [
          0.115581,
          0.100217,
          0.0615746,
          1.0
        ],
        "metallicFactor": 0.0
      }
    },
    {
      "doubleSided": true,
      "name": "ClawNEyes",
      "pbrMetallicRoughness": {
        "baseColorFactor": [
          0.38317,
          0.38317,
          0.38317,
          1.0
        ],
        "metallicFactor": 0.0,
        "roughnessFactor": 0.9380415437
      }
    }
  ],
  "meshes": [
    {
      "name": "Plane_Belly_0",
      "primitives": [
        {
          "attributes": {
            "NORMAL": 1,
            "POSITION": 0,
            "TEXCOORD_0": 2
          },
          "indices": 3,
          "material": 0,
          "mode": 4
        }
      ]
    },
    {
      "name": "Plane_Skin_0",
      "primitives": [
        {
          "attributes": {
            "NORMAL": 5,
            "POSITION": 4,
            "TEXCOORD_0": 6
          },
          "indices": 7,
          "material": 1,
          "mode": 4
        }
      ]
    },
    {
      "name": "Plane_Detail1_0",
      "primitives": [
        {
          "attributes": {
            "NORMAL": 9,
            "POSITION": 8,
            "TEXCOORD_0": 10
          },
          "indices": 11,
          "material": 2,
          "mode": 4
        }
      ]
    },
    {
      "name": "Plane_Wings_0",
      "primitives": [
        {
          "attributes": {
            "NORMAL": 13,
            "POSITION": 12,
            "TEXCOORD_0": 14
          },
          "indices": 15,
          "material": 3,
          "mode": 4
        }
      ]
    },
    {
      "name": "Plane_ClawNEyes_0",
      "primitives": [
        {
          "attributes": {
            "NORMAL": 17,
            "POSITION": 16,
            "TEXCOORD_0": 18
          },
          "indices": 19,
          "material": 4,
          "mode": 4
        }
      ]
    }
  ],
  "nodes": [
    {
      "children": [
        1
      ],
      "matrix": [
        1.0,
        0.0,
        0.0,
        0.0,
        0.0,
        2.220446049250313e-16,
        -1.0,
        0.0,
        0.0,
        1.0,
        2.220446049250313e-16,
        0.0,
        0.0,
        0.0,
        0.0,
        1.0
      ],
      "name": "Sketchfab_model"
    },
    {
      "children": [
        2
      ],
      "matrix": [
        1.0,
        0.0,
        0.0,
        0.0,
        0.0,
        0.0,
        1.0,
        0.0,
        0.0,
        -1.0,
        0.0,
        0.0,
        0.0,
        0.0,
        0.0,
        1.0
      ],
      "name": "df7552071826490fab8bb1f92b7640c2.fbx"
    },
    {
      "children": [
        3
      ],
      "name": "RootNode"
    },
    {
      "children": [
        4,
        5,
        6,
        7,
        8
      ],
      "matrix": [
        100.0,
        0.0,
        0.0,
        0.0,
        0.0,
        -1.629206793918314e-05,
        -99.99999999999868,
        0.0,
        0.0,
        99.99999999999868,
        -1.629206793918314e-05,
        0.0,
        0.0,
        0.0,
        0.0,
        1.0
      ],
      "name": "Plane"
    },
    {
      "mesh": 0,
      "name": "Plane_Belly_0"
    },
    {
      "mesh": 1,
      "name": "Plane_Skin_0"
    },
    {
      "mesh": 2,
      "name": "Plane_Detail1_0"
    },
    {
      "mesh": 3,
      "name": "Plane_Wings_0"
    },
    {
      "mesh": 4,
      "name": "Plane_ClawNEyes_0"
    }
  ],
  "scene": 0,
  "scenes": [
    {
      "name": "Sketchfab_Scene",
      "nodes": [
        0
      ]
    }
  ]
}
